<?xml version="1.0" ?>
<!-- Uploaded to: SVG Repo, www.svgrepo.com, Generator: SVG Repo Mixer Tools -->
<svg width="800px" height="800px" viewBox="0 0 64 64" id="Layer_1" version="1.1" xml:space="preserve" xmlns="http://www.w3.org/2000/svg" xmlns:xlink="http://www.w3.org/1999/xlink">
<style type="text/css">
	.st0{fill:#5C6373;}
	.st1{fill:#7D828C;}
	.st2{fill:#A4A5A6;}
</style>
<g id="Layer_17">
<path class="st0" d="M40,7h-2V5c0-0.6-0.4-1-1-1H23c-0.6,0-1,0.4-1,1v2h-2V5c0-1.7,1.3-3,3-3h14c1.7,0,3,1.3,3,3V7z"/>
<path class="st0" d="M15,25h-5c-1.7,0-3-1.3-3-3V10c0-1.7,1.3-3,3-3h8v2h-8c-0.6,0-1,0.4-1,1v12c0,0.6,0.4,1,1,1h5V25z"/>
<path class="st0" d="M56,47h-2v-7c0-0.6-0.4-1-1-1h-8v-2h8c1.7,0,3,1.3,3,3V47z"/>
<path class="st0" d="M14,58V38C7.4,38,2,43.4,2,50v8H14z"/>
<rect class="st1" height="4" width="60" x="2" y="58"/>
<rect class="st0" height="12" width="20" x="42" y="46"/>
<rect class="st2" height="2" width="4" x="45" y="49"/>
<rect class="st2" height="2" width="4" x="55" y="49"/>
<path class="st2" d="M46,46V13c0-3.9-3.1-7-7-7l0,0c-3.9,0-7,3.1-7,7v33H46z"/>
<path class="st2" d="M28,46V13c0-3.9-3.1-7-7-7l0,0c-3.9,0-7,3.1-7,7v33H28z"/>
<rect class="st1" height="4" width="30" x="12" y="46"/>
<rect class="st0" height="2" width="36" x="12" y="33"/>
<rect class="st0" height="2" width="36" x="12" y="29"/>
<rect class="st0" height="2" width="36" x="12" y="17"/>
<rect class="st0" height="2" width="36" x="12" y="13"/>
<rect class="st2" height="8" width="10" x="32" y="50"/>
<rect class="st2" height="8" width="14" x="14" y="50"/>
<path class="st2" d="M62,46h-4V28c0-1.1-0.9-2-2-2H46v-4h10c3.3,0,6,2.7,6,6V46z"/>
</g>
</svg>